# xmcd CD database file
#
# Track frame offsets:
#	150
#	15135
#	28500
#	42553
#	56151
#	74149
#	86689
#	114900
#	133843
#	149893
#	169166
#	189111
#	207117
#	228226
#	265136
#
# Disc length: 4088 seconds
#
# Revision: 0
# Processed by: cddbd v1.4PL0 Copyright (c) Steve Scherf et al.
# Submitted via: CDex 1.50
#
DISCID=d60ff60f
DTITLE=Blues Collection - 'Gator Guitar Bites
DYEAR=1999
DGENRE=Blues
TTITLE0=Roy Buchanan - Peter Gunn Theme
TTITLE1=Long John Hunter - Locksmith Man
TTITLE2=Elvin Bishop - Middle Aged Man
TTITLE3=Lonnie Brooks and Johnny Winter - Got Lucky Last Night
TTITLE4=Hound Dog Taylor - Don't Blame Me
TTITLE5=Little Charlie and The Nightcats - Yon Gonna Lie
TTITLE6=Corey Harris - Lynch Blues
TTITLE7=Kinsey Report - One Step Back
TTITLE8=Lucky Peterson - Locked out on Love
TTITLE9=Michael Hill Blues Mob - Lon Hot Night
TTITLE10=Albert Collins - Hoocked on You
TTITLE11=Tinsley Ellis - One Sunny Day
TTITLE12=Fenton Robinson - As the Years Go Passin' by
TTITLE13=Lil'ed and The Blues Imperials - Blues Imperial Theme
TTITLE14=CD Extra Hound Dog Taylor "Taylor's Rock" Live 1973
EXTD=YEAR: 1999
EXTT0=
EXTT1=
EXTT2=
EXTT3=
EXTT4=
EXTT5=
EXTT6=
EXTT7=
EXTT8=
EXTT9=
EXTT10=
EXTT11=
EXTT12=
EXTT13=
EXTT14=
PLAYORDER=
